<svg xmlns="http://www.w3.org/2000/svg" xmlns:xlink="http://www.w3.org/1999/xlink" width="500" zoomAndPan="magnify" viewBox="0 0 375 374.999991" height="500" preserveAspectRatio="xMidYMid meet" version="1.0"><defs><clipPath id="34886b06d8"><path d="M 59 146 L 328.125 146 L 328.125 300 L 59 300 Z M 59 146 " clip-rule="nonzero"/></clipPath><clipPath id="8227e8fd18"><path d="M 47 47 L 328.125 47 L 328.125 328.125 L 47 328.125 Z M 47 47 " clip-rule="nonzero"/></clipPath></defs><g clip-path="url(#34886b06d8)"><path fill="#0f6bdc" d="M 328.675781 160.035156 C 328.675781 163.339844 328.675781 166.648438 328.476562 170.28125 C 327.675781 172.347656 326.996094 174.070312 326.476562 175.839844 C 322.246094 190.285156 318.039062 204.734375 313.835938 219.183594 C 311.445312 227.394531 309.121094 235.621094 306.679688 243.8125 C 302.894531 256.523438 299.242188 269.285156 295.128906 281.890625 C 291.871094 291.871094 280.675781 299.550781 270.039062 299.554688 C 201.019531 299.566406 132.003906 299.558594 62.988281 299.558594 C 61.992188 299.558594 61 299.558594 59.332031 299.558594 C 60.210938 299.207031 60.4375 299.046875 60.671875 299.027344 C 73.742188 297.949219 83.179688 289.828125 86.925781 277.109375 C 91.578125 261.304688 96.105469 245.464844 100.699219 229.640625 C 104.542969 216.382812 108.414062 203.132812 112.246094 189.871094 C 114.472656 182.171875 116.707031 174.472656 118.84375 166.75 C 122.144531 154.796875 132.03125 146.863281 144.152344 146.859375 C 200.078125 146.839844 256.007812 146.839844 311.933594 146.871094 C 316.21875 146.871094 320.199219 148.242188 323.023438 151.492188 C 325.238281 154.050781 326.8125 157.167969 328.675781 160.035156 Z M 328.675781 160.035156 " fill-opacity="1" fill-rule="nonzero"/></g><g clip-path="url(#8227e8fd18)"><path fill="#ffffff" d="M 328.675781 159.777344 C 326.8125 157.167969 325.238281 154.050781 323.023438 151.492188 C 320.199219 148.242188 316.21875 146.871094 311.933594 146.871094 C 256.007812 146.839844 200.078125 146.839844 144.152344 146.859375 C 132.03125 146.863281 122.144531 154.796875 118.84375 166.75 C 116.707031 174.472656 114.472656 182.171875 112.246094 189.871094 C 108.414062 203.132812 104.542969 216.382812 100.699219 229.640625 C 96.105469 245.464844 91.578125 261.304688 86.925781 277.109375 C 83.179688 289.828125 73.742188 297.949219 60.671875 299.027344 C 60.4375 299.046875 60.210938 299.207031 59.332031 299.558594 C 61 299.558594 61.992188 299.558594 62.988281 299.558594 C 132.003906 299.558594 201.019531 299.566406 270.039062 299.554688 C 280.675781 299.550781 291.871094 291.871094 295.128906 281.890625 C 299.242188 269.285156 302.894531 256.523438 306.679688 243.8125 C 309.121094 235.621094 311.445312 227.394531 313.835938 219.183594 C 318.039062 204.734375 322.246094 190.285156 326.476562 175.839844 C 326.996094 174.070312 327.675781 172.347656 328.476562 170.535156 C 328.675781 223.179688 328.675781 275.886719 328.675781 328.636719 C 234.925781 328.636719 141.175781 328.636719 47.425781 328.636719 C 47.425781 312.695312 47.425781 296.773438 47.609375 280.644531 C 50.203125 284.921875 53.726562 288.066406 58.984375 287.953125 C 66.597656 287.785156 73.011719 283.984375 75.410156 276.125 C 79.203125 263.691406 82.785156 251.195312 86.433594 238.71875 C 90.660156 224.277344 94.871094 209.828125 99.0625 195.375 C 101.84375 185.796875 104.5 176.183594 107.355469 166.628906 C 109.382812 159.84375 111.914062 153.304688 116.871094 147.945312 C 125.027344 139.128906 135.328125 135.378906 147.019531 135.355469 C 194.703125 135.257812 242.386719 135.316406 290.070312 135.316406 C 291.140625 135.316406 292.210938 135.316406 293.496094 135.316406 C 293.496094 131.6875 294.058594 128.207031 293.394531 124.980469 C 290.941406 113.105469 281.933594 105.816406 270.191406 105.726562 C 240.449219 105.5 210.703125 105.644531 180.957031 105.664062 C 177.820312 105.664062 175.054688 104.738281 173 102.371094 C 168.808594 97.535156 164.613281 92.691406 160.644531 87.671875 C 155.113281 80.679688 147.902344 76.722656 139.132812 76.625 C 115.886719 76.367188 92.636719 76.40625 69.394531 76.617188 C 62.117188 76.683594 56.082031 80.042969 51.824219 86.074219 C 50.15625 88.433594 48.878906 91.0625 47.425781 93.566406 C 47.425781 78.195312 47.425781 62.820312 47.425781 47.4375 C 141.113281 47.4375 234.804688 47.4375 328.675781 47.4375 C 328.675781 84.789062 328.675781 122.152344 328.675781 159.777344 Z M 328.675781 159.777344 " fill-opacity="1" fill-rule="nonzero"/></g><path fill="#0f6bdc" d="M 47.425781 93.824219 C 48.878906 91.0625 50.15625 88.433594 51.824219 86.074219 C 56.082031 80.042969 62.117188 76.683594 69.394531 76.617188 C 92.636719 76.40625 115.886719 76.367188 139.132812 76.625 C 147.902344 76.722656 155.113281 80.679688 160.644531 87.671875 C 164.613281 92.691406 168.808594 97.535156 173 102.371094 C 175.054688 104.738281 177.820312 105.664062 180.957031 105.664062 C 210.703125 105.644531 240.449219 105.5 270.191406 105.726562 C 281.933594 105.816406 290.941406 113.105469 293.394531 124.980469 C 294.058594 128.207031 293.496094 131.6875 293.496094 135.316406 C 292.210938 135.316406 291.140625 135.316406 290.070312 135.316406 C 242.386719 135.316406 194.703125 135.257812 147.019531 135.355469 C 135.328125 135.378906 125.027344 139.128906 116.871094 147.945312 C 111.914062 153.304688 109.382812 159.84375 107.355469 166.628906 C 104.5 176.183594 101.84375 185.796875 99.0625 195.375 C 94.871094 209.828125 90.660156 224.277344 86.433594 238.71875 C 82.785156 251.195312 79.203125 263.691406 75.410156 276.125 C 73.011719 283.984375 66.597656 287.785156 58.984375 287.953125 C 53.726562 288.066406 50.203125 284.921875 47.609375 280.386719 C 47.425781 218.25 47.425781 156.164062 47.425781 93.824219 Z M 47.425781 93.824219 " fill-opacity="1" fill-rule="nonzero"/></svg>